<svg xmlns="http://www.w3.org/2000/svg" width="14.425" height="12" viewBox="0 0 14.425 12">
  <g id="right-arrow_1_" data-name="right-arrow (1)" transform="translate(0 0)">
    <g id="Group_5" data-name="Group 5">
      <path id="Path_1" data-name="Path 1" d="M.231,46.786,5.44,41.576a.792.792,0,0,1,1.117,0l.473.473a.784.784,0,0,1,.23.558.8.8,0,0,1-.23.565L3.99,46.218h9.655a.77.77,0,0,1,.779.776v.669a.8.8,0,0,1-.779.811H3.956l3.073,3.063a.782.782,0,0,1,0,1.109l-.473.472a.792.792,0,0,1-1.117,0L.23,47.906a.8.8,0,0,1,0-1.121Z" transform="translate(0 -41.346)" fill="#272424"/>
    </g>
  </g>
</svg>
