<svg xmlns="http://www.w3.org/2000/svg" xmlns:xlink="http://www.w3.org/1999/xlink" width="92" height="92" viewBox="0 0 92 92">
  <defs>
    <clipPath id="clip-path">
      <rect id="Rectangle_53" data-name="Rectangle 53" width="92" height="92" transform="translate(60 3062)" fill="#fff" stroke="#707070" stroke-width="1"/>
    </clipPath>
  </defs>
  <g id="Mask_Group_9" data-name="Mask Group 9" transform="translate(-60 -3062)" clip-path="url(#clip-path)">
    <g id="building" transform="translate(60 3062)">
      <g id="Group_70" data-name="Group 70">
        <g id="Group_69" data-name="Group 69">
          <path id="Path_46" data-name="Path 46" d="M65.933,85.867H23A1.534,1.534,0,0,0,21.467,87.4v3.067a1.533,1.533,0,0,0,3.067,0V88.933h41.4a1.533,1.533,0,0,0,0-3.067Z" fill="#fff"/>
          <path id="Path_47" data-name="Path 47" d="M33.733,38.333a1.534,1.534,0,0,0,1.533,1.533H41.4a1.534,1.534,0,0,0,1.533-1.533v-9.2A1.534,1.534,0,0,0,41.4,27.6H35.267a1.534,1.534,0,0,0-1.533,1.533v9.2ZM36.8,30.667h3.067V36.8H36.8Z" fill="#fff"/>
          <path id="Path_48" data-name="Path 48" d="M19.933,18.4H1.533A1.534,1.534,0,0,0,0,19.933V50.6a1.533,1.533,0,0,0,3.067,0V21.467H19.933a1.533,1.533,0,0,0,0-3.067Z" fill="#fff"/>
          <path id="Path_49" data-name="Path 49" d="M73.6,75.133a1.534,1.534,0,0,0,1.533,1.533h6.133A1.534,1.534,0,0,0,82.8,75.133v-9.2A1.534,1.534,0,0,0,81.267,64.4H75.133A1.534,1.534,0,0,0,73.6,65.933Zm3.067-7.667h3.067V73.6H76.667Z" fill="#fff"/>
          <path id="Path_50" data-name="Path 50" d="M7.667,55.2C.087,55.2,0,74.934,0,75.133a7.68,7.68,0,0,0,6.133,7.512v7.822a1.533,1.533,0,0,0,3.067,0V82.645a7.68,7.68,0,0,0,6.133-7.512C15.333,74.934,15.246,55.2,7.667,55.2Zm0,24.533a4.606,4.606,0,0,1-4.6-4.6c0-7.639,2.052-16.867,4.6-16.867s4.6,9.228,4.6,16.867A4.606,4.606,0,0,1,7.667,79.733Z" fill="#fff"/>
          <path id="Path_51" data-name="Path 51" d="M16.867,46H10.733A1.534,1.534,0,0,0,9.2,47.533V50.6a1.533,1.533,0,0,0,3.067,0V49.067h3.067v7.667a1.533,1.533,0,0,0,3.067,0v-9.2A1.534,1.534,0,0,0,16.867,46Z" fill="#fff"/>
          <path id="Path_52" data-name="Path 52" d="M75.133,39.867h6.133A1.534,1.534,0,0,0,82.8,38.333v-9.2A1.534,1.534,0,0,0,81.267,27.6H75.133A1.534,1.534,0,0,0,73.6,29.133v9.2A1.534,1.534,0,0,0,75.133,39.867Zm1.533-9.2h3.067V36.8H76.667Z" fill="#fff"/>
          <path id="Path_53" data-name="Path 53" d="M16.867,27.6H10.733A1.534,1.534,0,0,0,9.2,29.133v9.2a1.534,1.534,0,0,0,1.533,1.533h6.133A1.534,1.534,0,0,0,18.4,38.333v-9.2A1.534,1.534,0,0,0,16.867,27.6Zm-1.533,9.2H12.267V30.667h3.067V36.8Z" fill="#fff"/>
          <path id="Path_54" data-name="Path 54" d="M49.067,38.333A1.534,1.534,0,0,0,50.6,39.867h6.133a1.534,1.534,0,0,0,1.533-1.533v-9.2A1.534,1.534,0,0,0,56.733,27.6H50.6a1.534,1.534,0,0,0-1.533,1.533v9.2Zm3.067-7.667H55.2V36.8H52.133V30.667Z" fill="#fff"/>
          <path id="Path_55" data-name="Path 55" d="M90.467,18.4h-18.4a1.533,1.533,0,0,0,0,3.067H88.933V83.082a4.381,4.381,0,0,0-2.321-.213,6.124,6.124,0,0,0-10.69,0,4.509,4.509,0,0,0-.788-.069,4.6,4.6,0,0,0,0,9.2H87.4A4.606,4.606,0,0,0,92,87.4V19.933A1.534,1.534,0,0,0,90.467,18.4ZM87.4,88.933H75.133a1.533,1.533,0,0,1,0-3.067,1.515,1.515,0,0,1,.831.25,1.533,1.533,0,0,0,2.325-.943,3.055,3.055,0,0,1,5.956,0,1.533,1.533,0,0,0,2.325.943A1.564,1.564,0,0,1,88.933,87.4,1.536,1.536,0,0,1,87.4,88.933Z" fill="#fff"/>
          <path id="Path_56" data-name="Path 56" d="M50.6,21.467h6.133a1.534,1.534,0,0,0,1.533-1.533v-9.2A1.534,1.534,0,0,0,56.733,9.2H50.6a1.534,1.534,0,0,0-1.533,1.533v9.2A1.534,1.534,0,0,0,50.6,21.467Zm1.533-9.2H55.2V18.4H52.133V12.267Z" fill="#fff"/>
          <path id="Path_57" data-name="Path 57" d="M49.067,56.733A1.534,1.534,0,0,0,50.6,58.267h6.133a1.534,1.534,0,0,0,1.533-1.533v-9.2A1.534,1.534,0,0,0,56.733,46H50.6a1.534,1.534,0,0,0-1.533,1.533v9.2Zm3.067-7.667H55.2V55.2H52.133V49.067Z" fill="#fff"/>
          <path id="Path_58" data-name="Path 58" d="M35.267,21.467H41.4a1.534,1.534,0,0,0,1.533-1.533v-9.2A1.534,1.534,0,0,0,41.4,9.2H35.267a1.534,1.534,0,0,0-1.533,1.533v9.2A1.534,1.534,0,0,0,35.267,21.467Zm1.533-9.2h3.067V18.4H36.8Z" fill="#fff"/>
          <path id="Path_59" data-name="Path 59" d="M44.911,74.045a1.533,1.533,0,1,0,2.177,0A1.612,1.612,0,0,0,44.911,74.045Z" fill="#fff"/>
          <path id="Path_60" data-name="Path 60" d="M33.733,56.733a1.534,1.534,0,0,0,1.533,1.533H41.4a1.534,1.534,0,0,0,1.533-1.533v-9.2A1.534,1.534,0,0,0,41.4,46H35.267a1.534,1.534,0,0,0-1.533,1.533v9.2ZM36.8,49.067h3.067V55.2H36.8Z" fill="#fff"/>
          <path id="Path_61" data-name="Path 61" d="M30.667,65.933A1.534,1.534,0,0,0,32.2,67.467h4.6v13.8a1.533,1.533,0,0,0,3.067,0v-13.8H52.133v13.8a1.533,1.533,0,0,0,3.067,0v-13.8h4.6a1.533,1.533,0,0,0,0-3.067H32.2A1.534,1.534,0,0,0,30.667,65.933Z" fill="#fff"/>
          <path id="Path_62" data-name="Path 62" d="M73.6,56.733a1.534,1.534,0,0,0,1.533,1.533h6.133A1.534,1.534,0,0,0,82.8,56.733v-9.2A1.534,1.534,0,0,0,81.267,46H75.133A1.534,1.534,0,0,0,73.6,47.533Zm3.067-7.667h3.067V55.2H76.667Z" fill="#fff"/>
          <path id="Path_63" data-name="Path 63" d="M65.933,0H26.067a1.534,1.534,0,0,0-1.533,1.533V81.267a1.533,1.533,0,0,0,3.067,0V3.067H64.4v78.2a1.533,1.533,0,0,0,3.067,0V1.533A1.534,1.534,0,0,0,65.933,0Z" fill="#fff"/>
        </g>
      </g>
    </g>
  </g>
</svg>
