<svg xmlns="http://www.w3.org/2000/svg" xmlns:xlink="http://www.w3.org/1999/xlink" width="92" height="92" viewBox="0 0 92 92">
  <defs>
    <clipPath id="clip-path">
      <rect id="Rectangle_62" data-name="Rectangle 62" width="92" height="92" transform="translate(1524 3062)" fill="#fff" stroke="#707070" stroke-width="1"/>
    </clipPath>
  </defs>
  <g id="Mask_Group_12" data-name="Mask Group 12" transform="translate(-1524 -3062)" clip-path="url(#clip-path)">
    <g id="earth-globe" transform="translate(1524 3062)">
      <g id="Group_76" data-name="Group 76">
        <g id="Group_75" data-name="Group 75">
          <path id="Path_96" data-name="Path 96" d="M11.828,30.6a1.531,1.531,0,0,0,1.9-1.044A36.855,36.855,0,0,1,56.779,3.876a8.008,8.008,0,0,0,1.51,4.692c.17.27.4.638.429.688,0,5.5-1.124,6.394-1.112,6.4-2.486,0-6.564,2.22-8.1,5.083a4.9,4.9,0,0,0,.213,5.233A37.062,37.062,0,0,1,51.715,29.5c1.3,2.524,2.749,5.324,5.02,5.324a3.48,3.48,0,0,0,1.559-.406c1.788-.894,3.07-3.436,4.309-5.893a19.533,19.533,0,0,1,1.823-3.176c1.556.212,2.317,1.619,3.346,3.849.757,1.641,1.541,3.335,3.08,4.1,2.591,1.3,11.112-.061,15.821-2.061a1.533,1.533,0,0,0,.88-1.811A40.1,40.1,0,0,0,64.167,2.961,1.533,1.533,0,1,0,63,5.8a37.046,37.046,0,0,1,21.2,23.117c-4.772,1.682-10.9,2.188-11.986,1.65-.576-.288-1.156-1.541-1.667-2.647-1.069-2.315-2.533-5.486-6.271-5.652-1.932-.117-3.021,2.107-4.421,4.884-.822,1.628-2.062,4.089-3.051,4.576-.569-.133-1.7-2.321-2.374-3.628a39.674,39.674,0,0,0-2.165-3.827,1.841,1.841,0,0,1-.061-2.085,8.183,8.183,0,0,1,5.394-3.464c2.772,0,4.178-3.183,4.178-9.464a4.4,4.4,0,0,0-.9-2.323,4.674,4.674,0,0,1-.923-3.913A1.534,1.534,0,0,0,58.84,1.207,39.924,39.924,0,0,0,10.784,28.7,1.532,1.532,0,0,0,11.828,30.6Z" fill="#fff"/>
          <path id="Path_97" data-name="Path 97" d="M67.461,40.664c-.443.126-1.049.3-1.21.313-2.119,0-3.462,1.641-4.442,2.838-.374.457-1.05,1.277-1.481,1.29a4.8,4.8,0,0,0-2.165-.521,3.7,3.7,0,0,0-3.723,2.559,2.972,2.972,0,0,0,1.872,3.349c2.49,1.245,5.065,2.532,6.21,3.677a5.318,5.318,0,0,0,3.741,1.24,6.886,6.886,0,0,0,6.728-4.482,8.6,8.6,0,0,1,2.484-3.263c1.168-1.121,2.274-2.177,2.289-3.694a3.528,3.528,0,0,0-1.178-2.544A5.927,5.927,0,0,0,72.223,39.8,17.694,17.694,0,0,0,67.461,40.664ZM74.7,43.928a6.583,6.583,0,0,1-1.343,1.519,11.265,11.265,0,0,0-3.272,4.51c-.757,2.269-3.315,2.384-3.82,2.384A2.916,2.916,0,0,1,64.691,52c-1.5-1.5-4.175-2.838-7.009-4.253l-.017-.008a1.71,1.71,0,0,1,1.291.107,3.356,3.356,0,0,0,1.51.374c1.7,0,2.769-1.309,3.714-2.464.692-.842,1.4-1.714,2.07-1.714a8.171,8.171,0,0,0,2.052-.431,15.048,15.048,0,0,1,3.921-.744,2.957,2.957,0,0,1,2.194.725A2.617,2.617,0,0,1,74.7,43.928Z" fill="#fff"/>
          <path id="Path_98" data-name="Path 98" d="M88.553,34.35a1.533,1.533,0,1,0-3.037.42,37.345,37.345,0,0,1,.351,5.1,36.841,36.841,0,0,1-36.358,36.8c-5.453-3.482-10.563-7.748-8.286-13.059,4.088-9.542.284-13.1-1.342-14.619l-.305-.29a7.253,7.253,0,0,0-1.451-1.056C37,46.966,36.7,46.785,37.3,44.978a5.757,5.757,0,0,1,1.541-2.409c1.418-1.5,2.5-2.991,2.5-7.328a5.779,5.779,0,0,0-3.513-5.523c-2.532-1.119-5.913-.724-7.7.9A3.468,3.468,0,0,0,29.1,34.4c1.093,3.274-1.4,8.006-6.072,11.506-1.236.926-1.6.5-1.825.248-1.369-1.578-1.263-6.066-.14-7.188a2.271,2.271,0,0,0,.6-2.571c-1.242-2.817-9.165-2.6-10.736-2.525a1.536,1.536,0,0,0-1.452,1.345A36.247,36.247,0,0,0,9.2,39.867a39.774,39.774,0,0,0,30.273,38.7,1.533,1.533,0,1,0,.734-2.976,36.716,36.716,0,0,1-27.94-35.727c0-1.064.037-2,.118-2.962a22.863,22.863,0,0,1,5.922.641c-1.759,2.746-1.566,8.145.584,10.623,1.541,1.776,3.777,1.849,5.982.195,5.891-4.418,8.694-10.28,7.141-14.929-.049-.152-.1-.294.184-.55a4.649,4.649,0,0,1,4.4-.362,2.7,2.7,0,0,1,1.687,2.719c0,3.461-.7,4.2-1.664,5.221a8.736,8.736,0,0,0-2.223,3.547c-1.378,4.142.833,5.469,2.154,6.262a4.741,4.741,0,0,1,.86.593c.112.112.239.232.379.362,1.349,1.26,3.858,3.608.618,11.169-3.674,8.573,5.8,14.55,9.844,17.1a1.547,1.547,0,0,0,.819.236A39.913,39.913,0,0,0,88.934,39.867,40.357,40.357,0,0,0,88.553,34.35Z" fill="#fff"/>
          <path id="Path_99" data-name="Path 99" d="M74.69,74.319A42.576,42.576,0,0,1,49.067,82.8,42.981,42.981,0,0,1,6.133,39.867a1.533,1.533,0,1,0-3.067,0A46.047,46.047,0,0,0,47.533,85.828v4.638a1.533,1.533,0,0,0,3.067,0V85.805a45.547,45.547,0,0,0,25.923-9.027,1.534,1.534,0,0,0-1.832-2.46Z" fill="#fff"/>
          <path id="Path_100" data-name="Path 100" d="M50.24,62.126c-1.914,0-4.158,2.2-4.977,4.178a3.476,3.476,0,0,0,.523,3.956,5.543,5.543,0,0,0,7.457,0,3.925,3.925,0,0,0,.7-4.212A8.743,8.743,0,0,0,51.919,62.8,2.358,2.358,0,0,0,50.24,62.126Zm.834,5.965a2.684,2.684,0,0,1-3.113.017,1.863,1.863,0,0,1,.386-1.121,5.1,5.1,0,0,1,1.681-1.708,5.635,5.635,0,0,1,1,1.739C51.2,67.525,51.218,67.948,51.074,68.091Z" fill="#fff"/>
        </g>
      </g>
    </g>
  </g>
</svg>
