<svg xmlns="http://www.w3.org/2000/svg" xmlns:xlink="http://www.w3.org/1999/xlink" width="92" height="92" viewBox="0 0 92 92">
  <defs>
    <clipPath id="clip-path">
      <rect id="Rectangle_56" data-name="Rectangle 56" width="92" height="92" transform="translate(426 3062)" fill="#fff" stroke="#707070" stroke-width="1"/>
    </clipPath>
  </defs>
  <g id="Mask_Group_10" data-name="Mask Group 10" transform="translate(-426 -3062)" clip-path="url(#clip-path)">
    <g id="diploma" transform="translate(426 3062)">
      <g id="Group_72" data-name="Group 72">
        <g id="Group_71" data-name="Group 71">
          <path id="Path_64" data-name="Path 64" d="M55.2,32.178a1.533,1.533,0,0,0,1.534,1.534H72.077a1.534,1.534,0,0,0,0-3.068H56.738A1.533,1.533,0,0,0,55.2,32.178Z" fill="#fff"/>
          <path id="Path_65" data-name="Path 65" d="M64.407,41.381a1.533,1.533,0,0,0,1.534,1.534h9.2a1.534,1.534,0,0,0,0-3.068h-9.2A1.533,1.533,0,0,0,64.407,41.381Z" fill="#fff"/>
          <path id="Path_66" data-name="Path 66" d="M62.873,24.508a1.534,1.534,0,0,0,0-3.068H59.805a1.534,1.534,0,0,0,0,3.068Z" fill="#fff"/>
          <path id="Path_67" data-name="Path 67" d="M44.466,39.847a1.534,1.534,0,1,0,0,3.068H59.805a1.534,1.534,0,0,0,0-3.068Z" fill="#fff"/>
          <path id="Path_68" data-name="Path 68" d="M52.136,82.8H22.991a4.607,4.607,0,0,1-4.6-4.6V7.634A1.533,1.533,0,0,0,16.855,6.1a7.679,7.679,0,0,0-7.67,7.67,1.534,1.534,0,0,0,3.068,0,4.611,4.611,0,0,1,3.068-4.34V78.2a7.679,7.679,0,0,0,7.67,7.67H52.136a1.534,1.534,0,0,0,0-3.068Z" fill="#fff"/>
          <path id="Path_69" data-name="Path 69" d="M29.127,33.712H50.6a1.534,1.534,0,0,0,0-3.068H29.127a1.534,1.534,0,0,0,0,3.068Z" fill="#fff"/>
          <path id="Path_70" data-name="Path 70" d="M29.127,24.508h6.136a1.534,1.534,0,1,0,0-3.068H29.127a1.534,1.534,0,1,0,0,3.068Z" fill="#fff"/>
          <path id="Path_71" data-name="Path 71" d="M53.67,21.44H41.4a1.534,1.534,0,1,0,0,3.068H53.67a1.534,1.534,0,0,0,0-3.068Z" fill="#fff"/>
          <path id="Path_72" data-name="Path 72" d="M75.145,0H16.855A13.822,13.822,0,0,0,3.049,13.752v.072a13.86,13.86,0,0,0,6.9,11.9,1.533,1.533,0,0,0,1.537-2.654A10.717,10.717,0,0,1,16.855,3.068h58.29A10.75,10.75,0,0,1,85.883,13.806V78.231a4.464,4.464,0,0,1-.627,2.255A1.534,1.534,0,0,0,87.9,82.042a7.524,7.524,0,0,0,1.051-3.81V13.806A13.82,13.82,0,0,0,75.145,0Z" fill="#fff"/>
          <path id="Path_73" data-name="Path 73" d="M79.747,70.526a9.2,9.2,0,1,0-9.2,9.2A9.213,9.213,0,0,0,79.747,70.526Zm-9.2,6.136a6.136,6.136,0,1,1,6.136-6.136A6.142,6.142,0,0,1,70.543,76.662Z" fill="#fff"/>
          <path id="Path_74" data-name="Path 74" d="M67.774,81.265a1.535,1.535,0,0,0-2.1.561l-3.3,5.723-.525-.791a1.526,1.526,0,0,0-1.187-.686l-.948-.057L63.074,80.2a1.535,1.535,0,0,0-2.658-1.534l-4.6,7.963a1.534,1.534,0,0,0,1.238,2.3l2.658.159,1.468,2.223A1.532,1.532,0,0,0,62.462,92h.048a1.542,1.542,0,0,0,1.282-.767l4.545-7.872A1.533,1.533,0,0,0,67.774,81.265Z" fill="#fff"/>
          <path id="Path_75" data-name="Path 75" d="M80.71,78.741a1.535,1.535,0,0,0-2.658,1.534l3.318,5.742-.948.057a1.54,1.54,0,0,0-1.189.686l-.521.791-3.286-5.694a1.535,1.535,0,0,0-2.658,1.534L77.3,91.233A1.542,1.542,0,0,0,78.578,92h.048a1.539,1.539,0,0,0,1.281-.689l1.466-2.221,2.657-.161a1.534,1.534,0,0,0,1.238-2.3Z" fill="#fff"/>
          <path id="Path_76" data-name="Path 76" d="M29.127,42.915h9.2a1.534,1.534,0,1,0,0-3.068h-9.2a1.534,1.534,0,1,0,0,3.068Z" fill="#fff"/>
          <path id="Path_77" data-name="Path 77" d="M29.127,52.119H47.534a1.534,1.534,0,0,0,0-3.068H29.127a1.534,1.534,0,1,0,0,3.068Z" fill="#fff"/>
          <path id="Path_78" data-name="Path 78" d="M29.289,71.212a1.533,1.533,0,1,0,2.743-1.371c-1.519-3.037-1.859-5.761-.914-7.291a2.832,2.832,0,0,1,2.611-1.227,1.243,1.243,0,0,1,1.177.5c1.143,1.647.057,6.665-1.08,9.7a1.534,1.534,0,0,0,2.522,1.623c.655-.653,1.365-1.305,1.983-1.835v.75a1.534,1.534,0,0,0,2.618,1.084,19.179,19.179,0,0,1,2.2-1.879c-.018.038-.037.075-.055.11a1.536,1.536,0,0,0,1.374,2.218H50.6a1.534,1.534,0,1,0,0-3.068H46.609a2.963,2.963,0,0,0-.276-2.071,2.134,2.134,0,0,0-1.867-1,5.973,5.973,0,0,0-3.082,1.292,1.772,1.772,0,0,0-1.075-1.468c-.409-.169-.937-.39-2.218.379.5-2.643.652-5.689-.664-7.588a4.258,4.258,0,0,0-3.7-1.818,5.855,5.855,0,0,0-5.221,2.683C26.978,63.413,27.261,67.158,29.289,71.212Z" fill="#fff"/>
          <path id="Path_79" data-name="Path 79" d="M70.543,50.585a1.533,1.533,0,0,0-1.534-1.534H53.67a1.534,1.534,0,1,0,0,3.068H69.009A1.533,1.533,0,0,0,70.543,50.585Z" fill="#fff"/>
        </g>
      </g>
    </g>
  </g>
</svg>
