<svg xmlns="http://www.w3.org/2000/svg" width="14.287" height="10.883" viewBox="0 0 14.287 10.883">
  <g id="email" transform="translate(0 -61)">
    <g id="Group_99" data-name="Group 99" transform="translate(0 61)">
      <path id="Path_103" data-name="Path 103" d="M13.032,61H1.256A1.258,1.258,0,0,0,0,62.256v8.372a1.258,1.258,0,0,0,1.256,1.256H13.032a1.258,1.258,0,0,0,1.256-1.256V62.256A1.258,1.258,0,0,0,13.032,61ZM.837,70.454V62.425l4.032,4Zm.592.592,4.034-4.034,1.414,1.4a.419.419,0,0,0,.591,0l1.378-1.378,4.012,4.012Zm12.021-.592L9.438,66.442l4.012-4.012Z" transform="translate(0 -61)" fill="#fff"/>
    </g>
  </g>
</svg>
