<svg xmlns="http://www.w3.org/2000/svg" xmlns:xlink="http://www.w3.org/1999/xlink" width="92" height="92" viewBox="0 0 92 92">
  <defs>
    <clipPath id="clip-path">
      <rect id="Rectangle_60" data-name="Rectangle 60" width="92" height="92" transform="translate(1158 3062)" fill="#fff" stroke="#707070" stroke-width="1"/>
    </clipPath>
  </defs>
  <g id="Mask_Group_11" data-name="Mask Group 11" transform="translate(-1158 -3062)" clip-path="url(#clip-path)">
    <g id="exam" transform="translate(1158 3062)">
      <g id="Group_74" data-name="Group 74">
        <g id="Group_73" data-name="Group 73">
          <path id="Path_80" data-name="Path 80" d="M67.464,56.733A1.534,1.534,0,0,0,65.93,55.2h-9.2a1.533,1.533,0,0,0,0,3.067h9.2A1.534,1.534,0,0,0,67.464,56.733Z" fill="#fff"/>
          <path id="Path_81" data-name="Path 81" d="M61.33,16.867V9.2a1.533,1.533,0,1,0-3.067,0v7.667a7.675,7.675,0,0,0,7.667,7.667h13.8V53.667a1.533,1.533,0,1,0,3.067,0V23a1.534,1.534,0,0,0-1.533-1.533H65.93A4.606,4.606,0,0,1,61.33,16.867Z" fill="#fff"/>
          <path id="Path_82" data-name="Path 82" d="M65.93,36.8H53.664a1.533,1.533,0,0,0,0,3.067H65.93a1.533,1.533,0,0,0,0-3.067Z" fill="#fff"/>
          <path id="Path_83" data-name="Path 83" d="M49.064,38.333A1.534,1.534,0,0,0,47.53,36.8h-9.2a1.533,1.533,0,0,0,0,3.067h9.2A1.534,1.534,0,0,0,49.064,38.333Z" fill="#fff"/>
          <path id="Path_84" data-name="Path 84" d="M38.33,46a1.533,1.533,0,1,0,0,3.067H41.4A1.533,1.533,0,1,0,41.4,46H38.33Z" fill="#fff"/>
          <path id="Path_85" data-name="Path 85" d="M38.33,30.667H53.664a1.533,1.533,0,0,0,0-3.067H38.33a1.533,1.533,0,1,0,0,3.067Z" fill="#fff"/>
          <path id="Path_86" data-name="Path 86" d="M47.53,49.067H62.864a1.533,1.533,0,0,0,0-3.067H47.53a1.533,1.533,0,1,0,0,3.067Z" fill="#fff"/>
          <path id="Path_87" data-name="Path 87" d="M56.73,64.4a1.533,1.533,0,1,0,0,3.067H59.8a1.533,1.533,0,1,0,0-3.067Z" fill="#fff"/>
          <path id="Path_88" data-name="Path 88" d="M50.6,55.2H38.33a1.533,1.533,0,1,0,0,3.067H50.6a1.533,1.533,0,0,0,0-3.067Z" fill="#fff"/>
          <path id="Path_89" data-name="Path 89" d="M50.6,64.4H38.33a1.533,1.533,0,1,0,0,3.067H50.6a1.533,1.533,0,1,0,0-3.067Z" fill="#fff"/>
          <path id="Path_90" data-name="Path 90" d="M87.1,63.16l-3.067-3.067a5.761,5.761,0,0,0-8.3,0l-20.09,20.09a1.536,1.536,0,0,0-.449,1.084v9.2A1.534,1.534,0,0,0,56.73,92h9.2a1.536,1.536,0,0,0,1.084-.449L87.1,71.461A5.618,5.618,0,0,0,87.1,63.16ZM73.753,66.412l2.432,2.432L62.864,82.165l-2.432-2.432ZM58.264,88.933V81.9L65.3,88.933Zm9.2-2.168-2.432-2.432L78.353,71.011l2.432,2.432ZM84.936,69.293l-1.983,1.983-7.032-7.032L77.9,62.261a2.615,2.615,0,0,1,3.965,0l3.067,3.067A2.578,2.578,0,0,1,84.936,69.293Z" fill="#fff"/>
          <path id="Path_91" data-name="Path 91" d="M50.6,88.933H10.73a4.606,4.606,0,0,1-4.6-4.6V7.667a4.606,4.606,0,0,1,4.6-4.6H59.162L74.046,17.951a1.533,1.533,0,1,0,2.168-2.168L60.881.449A1.53,1.53,0,0,0,59.8,0H10.73A7.675,7.675,0,0,0,3.064,7.667V84.333A7.675,7.675,0,0,0,10.731,92H50.6a1.533,1.533,0,0,0,0-3.067Z" fill="#fff"/>
          <path id="Path_92" data-name="Path 92" d="M50.6,73.6H38.33a1.533,1.533,0,1,0,0,3.067H50.6a1.533,1.533,0,1,0,0-3.067Z" fill="#fff"/>
          <path id="Path_93" data-name="Path 93" d="M30.664,29.133A1.534,1.534,0,0,0,29.131,27.6h-9.2A1.534,1.534,0,0,0,18.4,29.133v9.2a1.534,1.534,0,0,0,1.533,1.533h9.2a1.534,1.534,0,0,0,1.533-1.533ZM27.6,36.8H21.464V30.667H27.6Z" fill="#fff"/>
          <path id="Path_94" data-name="Path 94" d="M19.93,76.667h9.2a1.534,1.534,0,0,0,1.533-1.533v-9.2A1.534,1.534,0,0,0,29.13,64.4h-9.2A1.534,1.534,0,0,0,18.4,65.933v9.2A1.534,1.534,0,0,0,19.93,76.667Zm1.533-9.2H27.6V73.6H21.464V67.467Z" fill="#fff"/>
          <path id="Path_95" data-name="Path 95" d="M21.913,57.817A1.535,1.535,0,0,0,23,58.266a1.243,1.243,0,0,0,.152-.008,1.53,1.53,0,0,0,1.124-.675l6.133-9.2a1.534,1.534,0,1,0-2.552-1.7l-5.1,7.644-1.745-1.743a1.533,1.533,0,1,0-2.168,2.168Z" fill="#fff"/>
        </g>
      </g>
    </g>
  </g>
</svg>
