<svg xmlns="http://www.w3.org/2000/svg" xmlns:xlink="http://www.w3.org/1999/xlink" width="105" height="105" viewBox="0 0 105 105">
  <defs>
    <clipPath id="clip-path">
      <rect id="Rectangle_28" data-name="Rectangle 28" width="105" height="105" transform="translate(459 1033)" fill="#fff" stroke="#707070" stroke-width="1"/>
    </clipPath>
  </defs>
  <g id="Mask_Group_3" data-name="Mask Group 3" transform="translate(-459 -1033)" clip-path="url(#clip-path)">
    <g id="hook" transform="translate(459 1033)">
      <path id="Path_8" data-name="Path 8" d="M29.75,59.5h3.5V63h-3.5Zm0,0" fill="#fff"/>
      <path id="Path_9" data-name="Path 9" d="M36.75,59.5h3.5V63h-3.5Zm0,0" fill="#fff"/>
      <path id="Path_10" data-name="Path 10" d="M43.75,59.5h3.5V63h-3.5Zm0,0" fill="#fff"/>
      <path id="Path_11" data-name="Path 11" d="M29.75,66.5h3.5V70h-3.5Zm0,0" fill="#fff"/>
      <path id="Path_12" data-name="Path 12" d="M36.75,66.5h3.5V70h-3.5Zm0,0" fill="#fff"/>
      <path id="Path_13" data-name="Path 13" d="M43.75,66.5h3.5V70h-3.5Zm0,0" fill="#fff"/>
      <path id="Path_14" data-name="Path 14" d="M50.75,66.5h3.5V70h-3.5Zm0,0" fill="#fff"/>
      <path id="Path_15" data-name="Path 15" d="M57.75,66.5h3.5V70h-3.5Zm0,0" fill="#fff"/>
      <path id="Path_16" data-name="Path 16" d="M29.75,73.5h3.5V77h-3.5Zm0,0" fill="#fff"/>
      <path id="Path_17" data-name="Path 17" d="M36.75,73.5h3.5V77h-3.5Zm0,0" fill="#fff"/>
      <path id="Path_18" data-name="Path 18" d="M43.75,73.5h3.5V77h-3.5Zm0,0" fill="#fff"/>
      <path id="Path_19" data-name="Path 19" d="M50.75,73.5h3.5V77h-3.5Zm0,0" fill="#fff"/>
      <path id="Path_20" data-name="Path 20" d="M57.75,73.5h3.5V77h-3.5Zm0,0" fill="#fff"/>
      <path id="Path_21" data-name="Path 21" d="M29.75,80.5h3.5V84h-3.5Zm0,0" fill="#fff"/>
      <path id="Path_22" data-name="Path 22" d="M36.75,80.5h3.5V84h-3.5Zm0,0" fill="#fff"/>
      <path id="Path_23" data-name="Path 23" d="M43.75,80.5h3.5V84h-3.5Zm0,0" fill="#fff"/>
      <path id="Path_24" data-name="Path 24" d="M50.75,80.5h3.5V84h-3.5Zm0,0" fill="#fff"/>
      <path id="Path_25" data-name="Path 25" d="M57.75,80.5h3.5V84h-3.5Zm0,0" fill="#fff"/>
      <path id="Path_26" data-name="Path 26" d="M29.75,87.5h3.5V91h-3.5Zm0,0" fill="#fff"/>
      <path id="Path_27" data-name="Path 27" d="M36.75,87.5h3.5V91h-3.5Zm0,0" fill="#fff"/>
      <path id="Path_28" data-name="Path 28" d="M43.75,87.5h3.5V91h-3.5Zm0,0" fill="#fff"/>
      <path id="Path_29" data-name="Path 29" d="M50.75,87.5h3.5V91h-3.5Zm0,0" fill="#fff"/>
      <path id="Path_30" data-name="Path 30" d="M57.75,87.5h3.5V91h-3.5Zm0,0" fill="#fff"/>
      <path id="Path_31" data-name="Path 31" d="M29.75,94.5h3.5V98h-3.5Zm0,0" fill="#fff"/>
      <path id="Path_32" data-name="Path 32" d="M36.75,94.5h3.5V98h-3.5Zm0,0" fill="#fff"/>
      <path id="Path_33" data-name="Path 33" d="M43.75,94.5h3.5V98h-3.5Zm0,0" fill="#fff"/>
      <path id="Path_34" data-name="Path 34" d="M50.75,94.5h3.5V98h-3.5Zm0,0" fill="#fff"/>
      <path id="Path_35" data-name="Path 35" d="M57.75,94.5h3.5V98h-3.5Zm0,0" fill="#fff"/>
      <path id="Path_36" data-name="Path 36" d="M103.249,5.25H91V1.75A1.75,1.75,0,0,0,89.249,0h-17.5A1.75,1.75,0,0,0,70,1.75v3.5H1.75A1.75,1.75,0,0,0,0,7v7a1.75,1.75,0,0,0,1.75,1.75H7V49a1.75,1.75,0,0,0,1.75,1.75A1.75,1.75,0,1,1,7,52.5H3.5a5.21,5.21,0,0,0,1.339,3.468L.35,61.95l.022.017A1.714,1.714,0,0,0,0,63v7a1.749,1.749,0,0,0,.513,1.237l3.5,3.5a1.75,1.75,0,0,0,1.237.513h7a1.75,1.75,0,0,0,1.237-.513l3.5-3.5A1.749,1.749,0,0,0,17.5,70V63a1.714,1.714,0,0,0-.373-1.032l.022-.017-4.489-5.983A5.218,5.218,0,0,0,10.5,47.55V15.75H70V17.5a1.75,1.75,0,0,0,1.75,1.75h3.5V101.5h-7v-70h-3.5v7H54.25V35h-3.5v3.5H40.25V36.75h-3.5V38.5H26.25V33.25H49v-3.5H26.25v-7h-3.5V101.5H19.974l-8.237-8.236a1.749,1.749,0,0,0-2.475,0L1.025,101.5H0V105H105v-3.5h-1.365a5.2,5.2,0,0,0-2.521-8.547,5.25,5.25,0,1,0-9.729,0,5.2,5.2,0,0,0-2.521,8.547H85.749V19.25h3.5A1.75,1.75,0,0,0,91,17.5V15.75h12.25A1.75,1.75,0,0,0,105,14V7a1.75,1.75,0,0,0-1.75-1.75ZM9.625,57.75l2.625,3.5h-7l2.625-3.5ZM14,69.276l-2.475,2.474H5.975L3.5,69.276V64.749H14ZM95.725,8.75,91,11.9V8.75ZM73.5,3.5h7v7h-7ZM26.25,9.1l4.725,3.15H21.524Zm-10.5,2.8L11.025,8.75h9.451ZM32.024,8.75h9.451L36.75,11.9ZM47.25,9.1l4.725,3.15H42.524Zm5.775-.35h9.451L57.75,11.9ZM3.5,8.75H4.725l5.25,3.5H3.5Zm60.024,3.5,5.25-3.5H70v3.5ZM82.249,95.725,79.1,91l3.15-4.724Zm0-42L79.1,49l3.15-4.724Zm-3.5,1.05L81.9,59.5l-3.15,4.725Zm0-11.55v-9.45L81.9,38.5Zm0,32.55L81.9,80.5l-3.15,4.725Zm3.5-1.06L79.1,70l3.15-4.724ZM79.1,28l3.15-4.724v9.45Zm-.35-5.775V19.25H80.73ZM64.749,42V59.5H54.25V42Zm-14,0V57.05l-4.025-3.978a1.754,1.754,0,0,0-1.225-.506H40.25V42Zm-14,0v2.917H26.25V42ZM10.5,96.974l4.525,4.525H5.975ZM26.25,101.5V48.417h10.5v5.906a1.75,1.75,0,0,0,1.75,1.75h6.28l6.494,6.421A1.75,1.75,0,0,0,52.5,63h12.25v38.5Zm52.5-4.724L81.9,101.5h-3.15Zm21,2.974A1.75,1.75,0,1,1,101.5,98,1.75,1.75,0,0,1,99.749,99.749Zm-3.5-10.5A1.75,1.75,0,1,1,94.5,91,1.75,1.75,0,0,1,96.249,89.25Zm-3.5,7A1.75,1.75,0,1,1,91,98,1.75,1.75,0,0,1,92.749,96.249ZM87.5,15.75h-14V14h8.75A1.75,1.75,0,0,0,84,12.25V3.5h3.5Zm9.275-3.5L101.5,9.1v3.15Zm0,0" fill="#fff"/>
    </g>
  </g>
</svg>
