<svg xmlns="http://www.w3.org/2000/svg" xmlns:xlink="http://www.w3.org/1999/xlink" width="22" height="22" viewBox="0 0 22 22">
  <defs>
    <clipPath id="clip-path">
      <rect id="Rectangle_16" data-name="Rectangle 16" width="22" height="22" transform="translate(1377 942)" fill="#fff"/>
    </clipPath>
  </defs>
  <g id="Mask_Group_1" data-name="Mask Group 1" transform="translate(-1377 -942)" clip-path="url(#clip-path)">
    <g id="tag" transform="translate(1377 942)">
      <g id="Group_10" data-name="Group 10">
        <g id="Group_9" data-name="Group 9">
          <path id="Path_2" data-name="Path 2" d="M21.811.189a.645.645,0,0,0-.912,0L19.022,2.066a1.938,1.938,0,0,0-.364-.131L12.824.494A1.944,1.944,0,0,0,10.988,1L.565,11.408a1.936,1.936,0,0,0,0,2.735l7.292,7.292a1.936,1.936,0,0,0,2.735,0L21,11.012a1.943,1.943,0,0,0,.509-1.836L20.065,3.342a1.942,1.942,0,0,0-.131-.364L21.811,1.1A.645.645,0,0,0,21.811.189Zm-1.556,9.3a.648.648,0,0,1-.17.612L9.681,20.523a.645.645,0,0,1-.912,0L1.477,13.231a.645.645,0,0,1,0-.912L11.9,1.914a.648.648,0,0,1,.457-.189.639.639,0,0,1,.155.019L17.991,3.1,16.439,4.649a1.934,1.934,0,1,0,.911.912L18.9,4.009ZM16.062,6.85a.644.644,0,1,1,0-.912h0A.645.645,0,0,1,16.062,6.85Z" fill="#fff"/>
        </g>
      </g>
      <g id="Group_12" data-name="Group 12">
        <g id="Group_11" data-name="Group 11">
          <path id="Path_3" data-name="Path 3" d="M10.592,7.761a1.934,1.934,0,1,0,0,2.735A1.936,1.936,0,0,0,10.592,7.761ZM9.681,9.585a.645.645,0,1,1,0-.912A.645.645,0,0,1,9.681,9.585Z" fill="#fff"/>
        </g>
      </g>
      <g id="Group_14" data-name="Group 14">
        <g id="Group_13" data-name="Group 13">
          <path id="Path_4" data-name="Path 4" d="M11.5,14.142a1.934,1.934,0,1,0,0,2.735A1.933,1.933,0,0,0,11.5,14.142Zm-.912,1.823a.645.645,0,1,1,0-.912A.644.644,0,0,1,10.592,15.965Z" fill="#fff"/>
        </g>
      </g>
      <g id="Group_16" data-name="Group 16">
        <g id="Group_15" data-name="Group 15">
          <path id="Path_5" data-name="Path 5" d="M14.423,11.792a.645.645,0,0,0-.712-.569l-8.2.912a.645.645,0,0,0,.07,1.285.657.657,0,0,0,.072,0l8.2-.912A.645.645,0,0,0,14.423,11.792Z" fill="#fff"/>
        </g>
      </g>
    </g>
  </g>
</svg>
