<svg xmlns="http://www.w3.org/2000/svg" xmlns:xlink="http://www.w3.org/1999/xlink" width="22" height="22" viewBox="0 0 22 22">
  <defs>
    <clipPath id="clip-path">
      <rect id="Rectangle_30" data-name="Rectangle 30" width="22" height="22" transform="translate(97 942)" fill="#fff"/>
    </clipPath>
  </defs>
  <g id="Mask_Group_5" data-name="Mask Group 5" transform="translate(-97 -942)" clip-path="url(#clip-path)">
    <g id="instagram" transform="translate(99.831 944.831)">
      <g id="Group_32" data-name="Group 32">
        <g id="Group_31" data-name="Group 31">
          <path id="Path_40" data-name="Path 40" d="M11.232,0H5.105A5.106,5.106,0,0,0,0,5.105v6.126a5.106,5.106,0,0,0,5.105,5.105h6.126a5.106,5.106,0,0,0,5.105-5.105V5.105A5.106,5.106,0,0,0,11.232,0Zm3.574,11.232a3.578,3.578,0,0,1-3.574,3.574H5.105a3.578,3.578,0,0,1-3.574-3.574V5.105A3.578,3.578,0,0,1,5.105,1.532h6.126a3.578,3.578,0,0,1,3.574,3.574Z" fill="#fff"/>
        </g>
      </g>
      <g id="Group_34" data-name="Group 34" transform="translate(4.084 4.084)">
        <g id="Group_33" data-name="Group 33">
          <path id="Path_41" data-name="Path 41" d="M9.584,5.5a4.084,4.084,0,1,0,4.084,4.084A4.084,4.084,0,0,0,9.584,5.5Zm0,6.637a2.553,2.553,0,1,1,2.553-2.553A2.556,2.556,0,0,1,9.584,12.137Z" transform="translate(-5.5 -5.5)" fill="#fff"/>
        </g>
      </g>
      <g id="Group_36" data-name="Group 36" transform="translate(12.015 3.234)">
        <g id="Group_35" data-name="Group 35">
          <circle id="Ellipse_1" data-name="Ellipse 1" cx="0.544" cy="0.544" r="0.544" fill="#fff"/>
        </g>
      </g>
    </g>
  </g>
</svg>
