<svg xmlns="http://www.w3.org/2000/svg" width="11.564" height="14.418" viewBox="0 0 11.564 14.418">
  <g id="placeholder" transform="translate(-47.2)">
    <g id="Group_97" data-name="Group 97" transform="translate(47.2)">
      <path id="Path_101" data-name="Path 101" d="M52.979,0A5.787,5.787,0,0,0,47.2,5.779a5.688,5.688,0,0,0,.1,1.085c0,.021.015.085.039.193a5.692,5.692,0,0,0,.387,1.14,16.2,16.2,0,0,0,5,6.13.409.409,0,0,0,.514,0,16.232,16.232,0,0,0,5-6.13,5.628,5.628,0,0,0,.387-1.14c.024-.109.036-.172.039-.193a5.943,5.943,0,0,0,.1-1.085A5.8,5.8,0,0,0,52.979,0Zm4.873,6.723c0,.006,0,.012,0,.018s-.012.06-.027.13v.006a4.8,4.8,0,0,1-.336.985s0,.009-.006.012a15.12,15.12,0,0,1-4.5,5.61,15.12,15.12,0,0,1-4.5-5.61s0-.009-.006-.012a5.118,5.118,0,0,1-.336-.985V6.871c-.018-.07-.024-.115-.027-.13s0-.012,0-.021a4.963,4.963,0,1,1,9.745,0Z" transform="translate(-47.2)" fill="#fff"/>
      <path id="Path_102" data-name="Path 102" d="M120.67,71.9a3.67,3.67,0,1,0,3.67,3.67A3.675,3.675,0,0,0,120.67,71.9Z" transform="translate(-114.89 -69.727)" fill="#fff"/>
    </g>
  </g>
</svg>
