<svg width="658" height="200" viewBox="0 0 658 200" fill="none" xmlns="http://www.w3.org/2000/svg">
<path d="M200 100C200 155.228 155.228 200 100 200C44.7715 200 -1.26026e-06 155.228 -1.26026e-06 100C-1.26026e-06 44.7715 44.7715 0 100 0C155.228 0 200 44.7715 200 100Z" fill="#FE0606"/>
<path d="M48.7988 131.525H98.9746V148H23.1641V135.969L72.3828 65.0801H23.2324V48.4688H97.8809V60.2266L48.7988 131.525ZM171.846 104.865H132.471V131.525H178.682V148H111.963V48.4688H178.545V65.0801H132.471V88.8008H171.846V104.865Z" fill="white"/>
<path d="M227.486 62.9062L245.748 114.469L263.912 62.9062H283.15V134H268.453V114.566L269.918 81.0215L250.729 134H240.67L221.529 81.0703L222.994 114.566V134H208.346V62.9062H227.486ZM325.631 134C324.98 132.73 324.508 131.152 324.215 129.264C320.797 133.072 316.354 134.977 310.885 134.977C305.709 134.977 301.412 133.479 297.994 130.484C294.609 127.49 292.916 123.714 292.916 119.156C292.916 113.557 294.983 109.26 299.117 106.266C303.284 103.271 309.29 101.757 317.135 101.725H323.629V98.6973C323.629 96.2559 322.994 94.3027 321.725 92.8379C320.488 91.373 318.518 90.6406 315.816 90.6406C313.44 90.6406 311.568 91.2103 310.201 92.3496C308.867 93.4889 308.199 95.0514 308.199 97.0371H294.088C294.088 93.9772 295.032 91.1452 296.92 88.541C298.808 85.9368 301.477 83.9023 304.928 82.4375C308.378 80.9401 312.252 80.1914 316.549 80.1914C323.059 80.1914 328.219 81.8353 332.027 85.123C335.868 88.3783 337.789 92.9681 337.789 98.8926V121.793C337.822 126.806 338.521 130.598 339.889 133.17V134H325.631ZM313.961 124.186C316.044 124.186 317.965 123.73 319.723 122.818C321.48 121.874 322.783 120.621 323.629 119.059V109.977H318.355C311.292 109.977 307.532 112.418 307.076 117.301L307.027 118.131C307.027 119.889 307.646 121.337 308.883 122.477C310.12 123.616 311.812 124.186 313.961 124.186ZM378.316 94.4004C376.396 94.14 374.703 94.0098 373.238 94.0098C367.9 94.0098 364.4 95.8164 362.74 99.4297V134H348.629V81.168H361.959L362.35 87.4668C365.182 82.6165 369.104 80.1914 374.117 80.1914C375.68 80.1914 377.145 80.403 378.512 80.8262L378.316 94.4004ZM404.342 112.809L399.264 117.887V134H385.152V59H399.264V100.553L401.998 97.0371L415.523 81.168H432.467L413.375 103.189L434.127 134H417.916L404.342 112.809ZM461.91 134.977C454.163 134.977 447.848 132.6 442.965 127.848C438.115 123.095 435.689 116.764 435.689 108.854V107.486C435.689 102.18 436.715 97.444 438.766 93.2773C440.816 89.0781 443.714 85.8555 447.457 83.6094C451.233 81.3307 455.53 80.1914 460.348 80.1914C467.574 80.1914 473.255 82.4701 477.389 87.0273C481.555 91.5846 483.639 98.0462 483.639 106.412V112.174H449.996C450.452 115.624 451.819 118.391 454.098 120.475C456.409 122.558 459.322 123.6 462.838 123.6C468.274 123.6 472.522 121.63 475.582 117.691L482.516 125.455C480.4 128.45 477.535 130.794 473.922 132.486C470.309 134.146 466.305 134.977 461.91 134.977ZM460.299 91.6172C457.499 91.6172 455.221 92.5612 453.463 94.4492C451.738 96.3372 450.631 99.0391 450.143 102.555H469.771V101.432C469.706 98.3066 468.86 95.8978 467.232 94.2051C465.605 92.4798 463.294 91.6172 460.299 91.6172ZM508.59 68.1797V81.168H517.623V91.5195H508.59V117.887C508.59 119.84 508.964 121.24 509.713 122.086C510.462 122.932 511.894 123.355 514.01 123.355C515.572 123.355 516.956 123.242 518.16 123.014V133.707C515.393 134.553 512.545 134.977 509.615 134.977C499.719 134.977 494.674 129.98 494.479 119.986V91.5195H486.764V81.168H494.479V68.1797H508.59ZM526.217 127.066C526.217 124.82 526.965 122.997 528.463 121.598C529.993 120.198 531.897 119.498 534.176 119.498C536.487 119.498 538.391 120.198 539.889 121.598C541.419 122.997 542.184 124.82 542.184 127.066C542.184 129.28 541.435 131.087 539.938 132.486C538.44 133.854 536.52 134.537 534.176 134.537C531.865 134.537 529.96 133.854 528.463 132.486C526.965 131.087 526.217 129.28 526.217 127.066ZM586.227 128.629C582.743 132.861 577.926 134.977 571.773 134.977C566.109 134.977 561.78 133.349 558.785 130.094C555.823 126.839 554.309 122.07 554.244 115.787V81.168H568.355V115.299C568.355 120.8 570.862 123.551 575.875 123.551C580.66 123.551 583.948 121.891 585.738 118.57V81.168H599.898V134H586.617L586.227 128.629ZM626.754 122.623H652.584V134H608.736V125.406L633.59 92.5938H609.469V81.168H651.803V89.5176L626.754 122.623Z" fill="black"/>
</svg>
